<!DOCTYPE svg PUBLIC "-//W3C//DTD SVG 1.1//EN" "http://www.w3.org/Graphics/SVG/1.1/DTD/svg11.dtd">
<!-- Uploaded to: SVG Repo, www.svgrepo.com, Transformed by: SVG Repo Mixer Tools -->
<svg fill="#ffffff" width="800px" height="800px" viewBox="0 0 24 24" xmlns="http://www.w3.org/2000/svg" stroke="#ffffff">
<g id="SVGRepo_bgCarrier" stroke-width="0"/>
<g id="SVGRepo_tracerCarrier" stroke-linecap="round" stroke-linejoin="round"/>
<g id="SVGRepo_iconCarrier">
<path d="M3,14a9,9,0,1,0,9-9A9.01,9.01,0,0,0,3,14Zm9-7a7,7,0,1,1-7,7A7.008,7.008,0,0,1,12,7Zm-1,7V9.2a1,1,0,0,1,2,0V13h3a1,1,0,0,1,0,2H12A1,1,0,0,1,11,14ZM8,3A1,1,0,0,1,8,1h8a1,1,0,0,1,0,2Z"/>
</g>
</svg>